<?xml version="1.0" encoding="UTF-8" standalone="no"?>
<!-- Generator: Adobe Illustrator 23.0.2, SVG Export Plug-In . SVG Version: 6.00 Build 0)  -->

<svg
   xmlns:dc="http://purl.org/dc/elements/1.1/"
   xmlns:cc="http://creativecommons.org/ns#"
   xmlns:rdf="http://www.w3.org/1999/02/22-rdf-syntax-ns#"
   xmlns:svg="http://www.w3.org/2000/svg"
   xmlns="http://www.w3.org/2000/svg"
   xmlns:sodipodi="http://sodipodi.sourceforge.net/DTD/sodipodi-0.dtd"
   xmlns:inkscape="http://www.inkscape.org/namespaces/inkscape"
   version="1.1"
   id="Layer_1"
   x="0px"
   y="0px"
   viewBox="0 0 380 380"
   xml:space="preserve"
   sodipodi:docname="Rakete.svg"
   width="380"
   height="380"
   inkscape:version="0.92.4 (5da689c313, 2019-01-14)"><metadata
   id="metadata103"><rdf:RDF><cc:Work
       rdf:about=""><dc:format>image/svg+xml</dc:format><dc:type
         rdf:resource="http://purl.org/dc/dcmitype/StillImage" /><dc:title></dc:title></cc:Work></rdf:RDF></metadata><defs
   id="defs101" /><sodipodi:namedview
   pagecolor="#ffffff"
   bordercolor="#666666"
   borderopacity="1"
   objecttolerance="10"
   gridtolerance="10"
   guidetolerance="10"
   inkscape:pageopacity="0"
   inkscape:pageshadow="2"
   inkscape:window-width="1269"
   inkscape:window-height="633"
   id="namedview99"
   showgrid="false"
   fit-margin-top="0"
   fit-margin-left="0"
   fit-margin-right="0"
   fit-margin-bottom="0"
   inkscape:zoom="0.472"
   inkscape:cx="-182.02672"
   inkscape:cy="135.01764"
   inkscape:window-x="0"
   inkscape:window-y="27"
   inkscape:window-maximized="0"
   inkscape:current-layer="Layer_1" />
<style
   type="text/css"
   id="style2">
	.st0{fill:#216E61;}
	.st1{fill:#D37A28;}
	.st2{fill:#E94624;}
	.st3{fill:#333333;}
	.st4{fill:#006937;}
</style>
<g
   id="g96"
   transform="translate(-309.99817,-310)">
	<g
   id="g94">
		<g
   id="g38">
			<g
   id="g36">
				<g
   id="g32">
					<g
   id="g6">
						<path
   class="st0"
   d="m 683.56,381.22 c -7.62,-2.51 -15.42,-4.16 -23.44,-4.78 -14.71,-1.14 -28.9,0.34 -42.71,3.74 -0.77,0.19 -1.55,0.39 -2.32,0.59 -0.89,0.23 -1.78,0.48 -2.66,0.73 0,0 -0.05,0.01 -0.13,0.04 l -0.63,0.18 c -0.11,0.02 -0.21,0.06 -0.33,0.09 -8.49,2.45 -16.83,5.59 -25.07,9.25 -1.66,0.74 -4.06,1.69 -6.36,2.73 -13.69,5.94 -26.6,12.55 -42.08,24.19 0.61,-0.62 13.38,-16.23 29.69,-25.91 -6.43,-0.7 -12.88,-1.33 -19.29,-2.28 -7.31,-1.09 -13.65,-0.27 -19.65,4.75 -9.72,8.16 -20.11,15.52 -29.98,23.51 -17.96,14.51 -34.98,30.07 -50.7,47.01 -1.55,1.68 -3.76,3.52 -2.38,6.08 1.27,2.37 3.87,1.17 5.87,0.97 7.38,-0.72 14.74,-1.64 22.11,-2.44 1.83,-0.2 4.1,-1.49 5.33,0.72 1.22,2.18 -0.81,3.78 -2.16,4.93 -4.74,4.01 -5.74,8.89 -4.35,14.7 2.16,9.1 5.88,17.34 12.35,24.23 5.34,5.69 10.73,10.99 19.65,7.51 1.43,-0.56 3.67,-1.21 4.72,0.85 0.87,1.68 -0.77,2.9 -1.63,4.08 -4.92,6.81 -9.94,13.55 -14.9,20.33 -0.8,1.08 -1.91,2.22 -1.26,3.67 0.79,1.73 2.5,1.7 4.08,1.55 1.35,-0.13 2.69,-0.4 4.01,-0.7 35.67,-8.25 69.76,-21.07 103.2,-35.73 2.91,-1.27 5.81,-2.73 7.18,-5.72 3.81,-8.24 7.41,-16.57 11.69,-26.22 -3.98,1.75 -7.92,3.42 -11.86,4.97 h -0.01 c -1.56,0.62 -3.11,1.22 -4.67,1.81 h -0.01 c -4.84,1.83 -9.66,3.51 -14.51,5.04 -6.94,2.21 -13.91,4.11 -20.99,5.73 -2.34,0.53 -4.7,1.03 -7.07,1.5 1.1,-1.71 2.57,-2.3 4.01,-2.77 0.6,-0.2 1.19,-0.36 1.74,-0.59 5.66,-2.23 11.28,-4.53 16.84,-6.95 3.97,-1.71 7.91,-3.5 11.81,-5.35 5.69,-2.7 11.3,-5.55 16.81,-8.6 4.86,-2.69 9.63,-5.53 14.3,-8.55 4.1,-2.64 8.11,-5.41 12.04,-8.35 0.56,-0.42 1.12,-0.83 1.67,-1.27 3.9,-2.98 7.62,-6.08 11.14,-9.34 3.52,-3.23 6.84,-6.61 9.94,-10.14 12.52,-14.25 21.5,-30.93 25.81,-50.8 1.05,-4.83 -0.4,-7.53 -4.84,-8.99 z m -49.18,29.1 -4.13,2.37 -4.2,2.42 c 3.69,8.26 9.45,16.71 18.5,23.17 1.34,0.95 1.34,2.92 0,3.85 -0.4,0.28 -0.88,0.42 -1.35,0.42 -0.47,0 -0.94,-0.14 -1.34,-0.42 -9.7,-6.9 -15.9,-15.88 -19.87,-24.69 l -6.6,3.79 -4.07,2.34 c 1.4,1.84 2.36,4.04 2.71,6.48 0.52,3.65 -0.41,7.18 -2.37,9.99 -0.92,1.33 -2.07,2.5 -3.39,3.44 -1.36,0.97 -2.9,1.71 -4.59,2.15 2.7,3.14 5.84,6.08 9.53,8.7 1.36,0.97 1.37,2.99 0,3.94 v 0 c -0.82,0.57 -1.92,0.58 -2.73,0 -5.15,-3.66 -9.34,-7.9 -12.74,-12.41 h -0.01 c -4.7,-0.81 -8.69,-3.98 -10.53,-8.4 l -4.08,2.35 -4.54,2.61 -4.08,2.36 c 0.87,1.13 1.46,2.48 1.67,3.98 0.16,1.1 0.11,2.19 -0.15,3.22 -0.41,1.76 -1.39,3.35 -2.73,4.51 -1.21,1.06 -2.72,1.77 -4.41,2.02 -0.05,0.01 -0.09,0.01 -0.14,0.01 0.25,0.34 0.49,0.68 0.74,1.01 0.49,0.68 1.02,1.34 1.56,2 0.5,0.61 1.02,1.21 1.55,1.81 1.78,1.98 3.76,3.89 5.94,5.67 0.7,0.58 1.43,1.15 2.18,1.7 0.35,0.26 0.72,0.52 1.08,0.77 l 0.01,0.01 c 1.16,0.79 1.16,2.5 0.01,3.3 l -0.69,0.48 c -0.68,0.47 -1.6,0.48 -2.27,0 -7.85,-5.52 -13.48,-12.39 -17.51,-19.44 -0.68,-0.73 -1.23,-1.58 -1.62,-2.52 l -4.1,2.35 -7.75,4.45 -4.2,2.42 -4.28,2.47 c 0.25,0.52 0.51,1.03 0.78,1.55 0.09,0.17 0.18,0.34 0.27,0.5 0.18,0.35 0.37,0.7 0.56,1.04 0.11,0.2 0.23,0.4 0.34,0.6 0.18,0.31 0.36,0.63 0.54,0.94 0.13,0.21 0.25,0.42 0.38,0.64 0.18,0.3 0.37,0.6 0.55,0.9 0.14,0.22 0.28,0.43 0.42,0.65 0.19,0.29 0.38,0.59 0.58,0.88 0.15,0.22 0.29,0.43 0.44,0.65 0.2,0.29 0.41,0.58 0.62,0.88 0.15,0.21 0.3,0.42 0.46,0.63 0.22,0.3 0.45,0.59 0.67,0.88 0.15,0.2 0.31,0.4 0.47,0.6 0.25,0.31 0.51,0.63 0.77,0.94 0.14,0.17 0.28,0.35 0.43,0.52 0.35,0.42 0.72,0.83 1.09,1.24 0.06,0.06 0.11,0.13 0.17,0.19 0.43,0.47 0.87,0.94 1.33,1.4 0.14,0.14 0.29,0.28 0.43,0.42 0.32,0.32 0.64,0.64 0.97,0.95 0.18,0.17 0.37,0.34 0.56,0.51 0.3,0.28 0.6,0.55 0.91,0.82 0.21,0.18 0.42,0.36 0.63,0.54 0.3,0.26 0.6,0.51 0.91,0.76 0.22,0.18 0.45,0.36 0.68,0.54 0.31,0.24 0.62,0.49 0.94,0.73 0.23,0.18 0.47,0.35 0.71,0.53 0.12,0.09 0.23,0.18 0.35,0.26 1.1,0.8 1.43,2.38 0.6,3.45 -0.81,1.04 -2.26,1.24 -3.27,0.52 -9.22,-6.54 -15.35,-14.94 -19.41,-23.31 l -40.07,23.04 c 0,0 -0.33,-0.39 -0.79,-1.1 -3.46,-5.46 -2.68,-12.56 1.64,-17.36 0.66,-0.74 1.33,-1.47 2.01,-2.19 9.24,-10.06 19.31,-19.24 29.76,-28.03 0.79,-0.67 1.57,-1.33 2.36,-1.98 0.68,-0.56 1.36,-1.14 2.05,-1.7 1.53,-1.26 3.05,-2.5 4.59,-3.73 1.6,-1.28 3.2,-2.54 4.81,-3.78 3.24,-2.51 6.5,-4.97 9.82,-7.34 1.51,-1.09 3.03,-2.16 4.57,-3.22 1.56,-1.07 3.15,-2.12 4.73,-3.17 1.61,-1.06 3.24,-2.09 4.87,-3.1 5.68,-3.53 11.52,-6.82 17.54,-9.79 1.55,-0.77 3.11,-1.53 4.7,-2.24 1.29,-0.6 2.58,-1.19 3.89,-1.74 1.9,-0.83 3.81,-1.62 5.75,-2.37 3.74,-1.47 7.55,-2.81 11.44,-4 2.14,-0.66 4.27,-1.27 6.42,-1.83 1.54,-0.41 3.06,-0.79 4.6,-1.13 1.55,-0.38 3.11,-0.7 4.67,-1.01 1.55,-0.29 3.1,-0.58 4.65,-0.82 11.75,-1.89 23.65,-2.23 35.73,-0.74 1.5,0.19 3.19,-0.05 4.44,2.2 z"
   id="path4"
   inkscape:connector-curvature="0"
   style="fill:#216e61" />
					</g>
					<path
   class="st0"
   d="m 618.68,429.4 c -0.43,-3.02 -1.58,-5.8 -3.29,-8.16 -3.42,-4.81 -9.05,-7.92 -15.25,-7.92 -0.88,0 -1.78,0.06 -2.66,0.19 -1.12,0.16 -2.21,0.41 -3.25,0.76 -1.62,0.53 -3.13,1.27 -4.53,2.21 -1.73,1.16 -3.27,2.62 -4.55,4.34 -3,4 -4.27,8.93 -3.56,13.89 0.26,1.8 0.77,3.51 1.51,5.11 2.98,6.51 9.58,10.98 17.01,10.98 0.89,0 1.78,-0.07 2.68,-0.19 1.55,-0.22 3.04,-0.63 4.45,-1.21 1.57,-0.63 3.04,-1.49 4.38,-2.54 1.31,-1.01 2.49,-2.21 3.51,-3.57 2.99,-4.01 4.25,-8.94 3.55,-13.89 z m -10.41,14.08 c -1.36,0.97 -2.9,1.71 -4.59,2.15 -0.5,0.13 -1.03,0.23 -1.56,0.32 -6.47,0.92 -12.54,-2.72 -14.93,-8.49 -0.46,-1.07 -0.77,-2.22 -0.95,-3.43 -0.7,-4.91 1.22,-9.59 4.72,-12.61 1.27,-1.1 2.75,-1.98 4.39,-2.57 0.88,-0.33 1.82,-0.56 2.79,-0.7 5.24,-0.75 10.2,1.49 13.18,5.42 1.4,1.84 2.36,4.04 2.71,6.48 0.76,5.38 -1.62,10.49 -5.76,13.43 z"
   id="path8"
   inkscape:connector-curvature="0"
   style="fill:#216e61" />
					<path
   class="st0"
   d="m 580.79,448.08 c -0.29,-2.09 -1.08,-4.01 -2.23,-5.67 -2.42,-3.49 -6.47,-5.75 -10.93,-5.75 -0.63,0 -1.27,0.05 -1.9,0.14 -0.63,0.09 -1.24,0.22 -1.84,0.4 -1.64,0.48 -3.15,1.26 -4.44,2.28 -3.64,2.83 -5.7,7.49 -5,12.38 0.19,1.34 0.58,2.61 1.13,3.77 2.15,4.54 6.81,7.65 12.03,7.65 0.63,0 1.27,-0.05 1.9,-0.14 0.83,-0.12 1.63,-0.32 2.41,-0.56 1.61,-0.55 3.05,-1.4 4.31,-2.45 3.36,-2.87 5.23,-7.35 4.56,-12.05 z m -7.54,8.4 c -1.21,1.06 -2.72,1.77 -4.41,2.02 -0.05,0.01 -0.09,0.01 -0.14,0.01 h -0.01 c -3.91,0.5 -7.57,-1.73 -9.01,-5.22 -0.27,-0.66 -0.47,-1.35 -0.58,-2.09 -0.38,-2.57 0.43,-5.05 2.02,-6.87 1.09,-1.26 2.56,-2.21 4.26,-2.65 0.33,-0.11 0.67,-0.18 1.02,-0.22 3.2,-0.47 6.26,0.9 8.08,3.32 0.87,1.13 1.46,2.48 1.67,3.98 0.42,3 -0.76,5.87 -2.9,7.72 z"
   id="path10"
   inkscape:connector-curvature="0"
   style="fill:#216e61" />
					<g
   id="g14">
						<path
   class="st0"
   d="m 651.64,437.25 -2.3,4.08 c -0.67,-0.38 -1.31,-0.76 -1.95,-1.16 -10.72,-6.64 -17.29,-15.96 -21.34,-25.06 -4.23,-9.54 -5.67,-18.84 -6.15,-24.54 -0.27,-3.2 -0.23,-5.27 -0.22,-5.62 l 4.68,0.11 c 0,0.08 -0.02,1.76 0.21,4.51 0.43,5.14 1.74,14.02 5.68,23.14 3.94,9.07 10.49,18.39 21.39,24.54 z"
   id="path12"
   inkscape:connector-curvature="0"
   style="fill:#216e61" />
					</g>
					<g
   id="g20">
						<path
   class="st0"
   d="m 594.23,414.27 c 0.31,1.47 0.68,3.01 1.12,4.59 -1.64,0.59 -3.12,1.47 -4.39,2.57 -0.49,-1.71 -0.92,-3.37 -1.26,-4.95 -1.49,-6.64 -1.83,-12.11 -1.9,-14.84 -0.02,-1.01 -0.01,-1.66 -0.01,-1.83 l 3.9,0.09 0.89,0.02 c -0.01,0.16 -0.08,6.17 1.65,14.35 z"
   id="path16"
   inkscape:connector-curvature="0"
   style="fill:#216e61" />
						<path
   class="st0"
   d="m 620.46,453.27 -2.36,4.18 c -0.68,-0.39 -1.35,-0.77 -2,-1.19 -3.35,-2.07 -6.28,-4.39 -8.87,-6.88 -1.27,-1.22 -2.45,-2.47 -3.56,-3.76 1.69,-0.43 3.23,-1.17 4.59,-2.15 1.04,1.16 2.16,2.29 3.35,3.37 2.59,2.39 5.52,4.55 8.85,6.43 z"
   id="path18"
   inkscape:connector-curvature="0"
   style="fill:#216e61" />
					</g>
					<g
   id="g26">
						<path
   class="st0"
   d="m 563.89,437.2 c 0.43,1.47 0.93,2.96 1.49,4.47 -1.7,0.45 -3.17,1.4 -4.26,2.65 -0.63,-1.64 -1.19,-3.26 -1.67,-4.85 -2.55,-8.22 -3.27,-15.49 -3.49,-19.54 -0.09,-1.87 -0.07,-3.04 -0.07,-3.3 l 4.8,0.11 c 0,0 0,0.01 0,0.02 -0.01,0.57 -0.04,9.56 3.2,20.44 z"
   id="path22"
   inkscape:connector-curvature="0"
   style="fill:#216e61" />
						<path
   class="st0"
   d="m 588.57,470.09 -2.36,4.18 c -0.68,-0.39 -1.35,-0.77 -2,-1.19 -0.38,-0.23 -0.74,-0.47 -1.1,-0.69 -0.47,-0.31 -0.92,-0.62 -1.36,-0.93 -0.36,-0.26 -0.73,-0.52 -1.08,-0.77 -0.75,-0.55 -1.48,-1.13 -2.18,-1.7 -2.18,-1.78 -4.16,-3.69 -5.94,-5.67 -0.21,-0.25 -0.43,-0.49 -0.63,-0.74 -0.32,-0.35 -0.62,-0.7 -0.92,-1.07 -0.54,-0.66 -1.07,-1.31 -1.56,-2 -0.25,-0.33 -0.49,-0.67 -0.74,-1.01 0.05,0 0.09,0 0.14,-0.01 1.69,-0.25 3.2,-0.96 4.41,-2.02 0.92,1.24 1.9,2.46 2.97,3.65 3.34,3.76 7.41,7.19 12.35,9.97 z"
   id="path24"
   inkscape:connector-curvature="0"
   style="fill:#216e61" />
					</g>
					<g
   id="g30">
						<path
   class="st0"
   d="m 564.6,485.65 -2.36,4.18 c -0.68,-0.39 -1.34,-0.77 -1.98,-1.17 -10.2,-6.33 -16.73,-15.01 -20.92,-23.69 -5,-10.38 -6.64,-20.74 -7.17,-26.96 -0.28,-3.31 -0.26,-5.45 -0.25,-5.81 l 4.8,0.11 c 0,0.05 -0.01,0.75 0.04,1.97 0.2,4.57 1.27,16.39 6.87,28.23 4.09,8.64 10.61,17.29 20.97,23.14 z"
   id="path28"
   inkscape:connector-curvature="0"
   style="fill:#216e61" />
					</g>
				</g>
				<path
   class="st0"
   d="m 486.6,543.13 c -1.01,1.33 -4.11,5.35 -1.78,10.51 0.4,0.87 2.54,4.88 5.34,8.71 l -22.99,-0.45 2.17,53.71 -40.09,-38.13 -45.8,46.45 4.48,-59.82 -76.66,5.46 58.76,-42.59 -57.49,-44.3 76.48,7.71 -2.73,-59.92 44.42,47.77 7.49,-6.71 c 0.19,0.94 0.54,1.93 1.09,2.95 1.76,3.29 4.94,5.18 8.73,5.18 1.33,0 2.5,-0.22 3.36,-0.39 0.23,-0.05 0.47,-0.11 0.67,-0.13 4.65,-0.45 9.34,-0.99 13.87,-1.51 0.12,-0.01 0.22,-0.02 0.34,-0.04 -0.47,1.08 -0.85,2.21 -1.09,3.38 -12.3,12.4 -24.42,24.4 -35.27,35.14 -7.44,7.37 -15.13,14.75 -22.57,21.9 -3.39,3.26 -6.78,6.53 -10.17,9.8 -1.74,1.67 -1.91,4.39 -0.42,6.28 l 1.12,1.41 c 0.9,1.15 2.27,1.78 3.69,1.78 0.41,0 0.82,-0.05 1.23,-0.16 0,0 1.51,-0.41 1.96,-0.54 9.55,-2.52 19.1,-5.07 28.64,-7.63 18.16,-4.85 36.78,-9.82 55.39,-14.59 l 2.59,2.29 c -1.53,2.08 -3.04,4.13 -4.53,6.19 z"
   id="path34"
   inkscape:connector-curvature="0"
   style="fill:#216e61" />
			</g>
		</g>
		<g
   id="g84">
			<g
   id="g62">
				<path
   class="st0"
   d="m 362.07,445.36 2.05,0.64 -0.15,0.48 -0.67,2.15 -0.64,2.05 c -0.13,0.42 -0.31,0.74 -0.57,0.97 -0.26,0.22 -0.53,0.37 -0.91,0.48 l -9.71,2.76 c -0.38,0.11 -0.62,0.27 -0.83,0.46 -0.21,0.2 -0.39,0.53 -0.53,0.98 l -0.55,1.77 6.39,2 c 0.2,-0.39 0.39,-0.76 0.5,-0.99 0.11,-0.23 0.23,-0.38 0.27,-0.49 0.03,-0.1 0.09,-0.16 0.1,-0.2 0.32,-0.55 0.76,-0.72 1.35,-0.53 l 2.05,0.64 -0.83,2.64 -1.45,4.65 -0.83,2.64 -2.05,-0.64 c -0.59,-0.19 -0.85,-0.57 -0.81,-1.21 0.01,-0.03 0,-0.12 0.03,-0.22 0,-0.12 0.02,-0.3 0.06,-0.55 0.04,-0.25 0.09,-0.66 0.15,-1.1 l -18.24,-5.7 c -0.2,0.39 -0.39,0.75 -0.5,0.99 -0.11,0.23 -0.23,0.39 -0.27,0.49 -0.03,0.1 -0.09,0.16 -0.1,0.2 -0.32,0.55 -0.76,0.72 -1.35,0.53 l -2.05,-0.64 0.83,-2.64 2.31,-7.4 c 0.53,-1.7 1.17,-3.14 1.9,-4.25 0.73,-1.11 1.56,-1.95 2.43,-2.52 0.86,-0.57 1.86,-0.94 2.83,-1.02 1.02,-0.1 2.01,0.02 3.09,0.36 0.83,0.26 1.59,0.65 2.28,1.13 0.69,0.48 1.23,1.07 1.71,1.72 0.48,0.65 0.82,1.4 1.05,2.23 0.23,0.84 0.37,1.76 0.37,2.71 0.53,-0.48 1.18,-0.85 1.94,-1.07 l 7.07,-2.14 c 0.2,-0.4 0.39,-0.75 0.51,-1.02 0.12,-0.27 0.25,-0.42 0.29,-0.56 0.04,-0.14 0.11,-0.23 0.12,-0.27 0.34,-0.53 0.77,-0.7 1.36,-0.51 z m -15.05,4.71 c -0.25,-0.54 -0.64,-1 -1.1,-1.37 -0.46,-0.37 -1.01,-0.66 -1.64,-0.85 -1.28,-0.4 -2.39,-0.29 -3.34,0.33 -0.96,0.62 -1.67,1.8 -2.21,3.54 l -0.86,2.74 8.34,2.61 0.84,-2.68 c 0.27,-0.87 0.37,-1.68 0.37,-2.4 0,-0.73 -0.14,-1.38 -0.4,-1.92 z"
   id="path40"
   inkscape:connector-curvature="0"
   style="fill:#216e61" />
				<path
   class="st0"
   d="m 355.65,421.88 c 0.77,-0.71 1.68,-1.18 2.66,-1.49 0.98,-0.31 2.01,-0.4 3.13,-0.27 1.12,0.13 2.26,0.47 3.45,1.09 0.29,0.15 0.57,0.33 0.74,0.47 0.18,0.13 0.32,0.25 0.39,0.36 0.1,0.13 0.11,0.26 0.11,0.43 0,0.16 -0.07,0.29 -0.17,0.49 l -5.3,10.25 c 1.78,0.76 3.24,0.94 4.47,0.55 1.23,-0.39 2.15,-1.22 2.83,-2.55 0.33,-0.65 0.55,-1.23 0.63,-1.77 0.09,-0.57 0.13,-1.04 0.12,-1.5 -0.01,-0.46 0.03,-0.85 0,-1.19 -0.03,-0.34 0.02,-0.6 0.16,-0.86 0.08,-0.16 0.2,-0.31 0.33,-0.4 0.13,-0.1 0.23,-0.13 0.41,-0.16 l 2.06,-0.41 c 0.28,0.72 0.49,1.44 0.56,2.17 0.07,0.73 0.06,1.46 -0.05,2.15 -0.12,0.72 -0.31,1.4 -0.53,2.06 -0.22,0.66 -0.51,1.3 -0.81,1.88 -0.6,1.16 -1.3,2.12 -2.2,2.92 -0.91,0.8 -1.92,1.34 -3.05,1.7 -1.13,0.36 -2.37,0.46 -3.68,0.31 -1.32,-0.15 -2.71,-0.62 -4.17,-1.37 -1.13,-0.58 -2.07,-1.31 -2.89,-2.19 -0.82,-0.87 -1.41,-1.87 -1.8,-2.94 -0.39,-1.06 -0.54,-2.2 -0.46,-3.39 0.08,-1.19 0.46,-2.47 1.09,-3.7 0.54,-1.05 1.2,-1.94 1.97,-2.64 z m 0.51,7.26 c 0.31,0.98 1.03,1.89 2.13,2.7 l 3.88,-7.5 c -0.52,-0.27 -1.05,-0.42 -1.57,-0.53 -0.52,-0.1 -1.02,-0.08 -1.53,0.03 -0.51,0.11 -0.95,0.33 -1.38,0.68 -0.43,0.35 -0.82,0.8 -1.13,1.39 -0.6,1.16 -0.71,2.25 -0.4,3.23 z"
   id="path42"
   inkscape:connector-curvature="0"
   style="fill:#216e61" />
				<path
   class="st0"
   d="m 395.13,394.76 1.67,1.35 -1.72,2.12 -2.85,3.5 -9.21,-7.48 c -0.93,-0.76 -1.8,-1.13 -2.57,-1.11 -0.8,0.01 -1.51,0.41 -2.15,1.21 -0.3,0.37 -0.49,0.78 -0.63,1.18 -0.14,0.4 -0.18,0.79 -0.14,1.2 0.04,0.41 0.22,0.83 0.44,1.25 0.23,0.42 0.6,0.82 1.05,1.18 l 6.41,5.21 c 0.36,-0.32 0.62,-0.53 0.81,-0.7 0.19,-0.18 0.33,-0.29 0.43,-0.36 0.1,-0.06 0.14,-0.12 0.17,-0.15 0.5,-0.39 0.97,-0.38 1.45,0.01 l 1.67,1.35 -1.72,2.12 -2.85,3.5 -9.21,-7.48 c -0.96,-0.78 -1.83,-1.16 -2.6,-1.13 -0.77,0.03 -1.46,0.41 -2.08,1.17 -0.41,0.51 -0.67,1.05 -0.78,1.71 -0.11,0.66 -0.07,1.35 0.06,2.06 l 7.8,6.33 c 0.33,-0.29 0.62,-0.53 0.81,-0.7 0.19,-0.18 0.33,-0.29 0.43,-0.36 0.1,-0.06 0.14,-0.12 0.17,-0.15 0.5,-0.39 0.97,-0.39 1.45,0.01 l 1.67,1.35 -1.72,2.12 -2.85,3.5 -1.72,2.12 -1.67,-1.35 c -0.48,-0.39 -0.58,-0.85 -0.3,-1.42 0.02,-0.03 0.04,-0.11 0.11,-0.19 0.07,-0.09 0.13,-0.27 0.26,-0.49 0.13,-0.22 0.3,-0.55 0.52,-0.93 l -8.9,-7.23 c -0.33,0.29 -0.62,0.53 -0.81,0.7 -0.19,0.18 -0.36,0.27 -0.43,0.36 -0.07,0.09 -0.14,0.12 -0.17,0.15 -0.5,0.39 -0.99,0.41 -1.47,0.02 l -1.67,-1.35 1.74,-2.15 1.74,-2.15 c 0.37,-0.45 0.82,-0.55 1.36,-0.35 l 1.26,0.65 c -0.08,-0.48 -0.15,-0.97 -0.15,-1.43 0,-0.47 0.06,-0.94 0.14,-1.39 0.08,-0.45 0.22,-0.9 0.4,-1.36 0.19,-0.46 0.48,-0.88 0.82,-1.3 0.73,-0.9 1.58,-1.48 2.57,-1.66 0.99,-0.18 2.01,-0.1 3.06,0.28 -0.3,-0.62 -0.49,-1.24 -0.55,-1.86 -0.06,-0.61 -0.02,-1.19 0.08,-1.77 0.1,-0.58 0.32,-1.15 0.57,-1.69 0.25,-0.54 0.59,-1.07 0.95,-1.52 0.64,-0.79 1.33,-1.41 2.09,-1.82 0.76,-0.41 1.53,-0.68 2.36,-0.71 0.82,-0.03 1.64,0.12 2.5,0.44 0.86,0.33 1.74,0.86 2.62,1.57 l 6.41,5.21 c 0.33,-0.29 0.62,-0.53 0.81,-0.7 0.19,-0.18 0.36,-0.27 0.43,-0.36 0.07,-0.09 0.14,-0.12 0.17,-0.15 0.52,-0.37 0.98,-0.37 1.46,0.02 z"
   id="path44"
   inkscape:connector-curvature="0"
   style="fill:#216e61" />
				<path
   class="st0"
   d="m 400.16,370.09 c 1.15,-0.37 2.31,-0.5 3.45,-0.35 1.15,0.15 2.22,0.55 3.31,1.21 1.09,0.66 2.08,1.55 3,2.68 0.93,1.16 1.58,2.32 2,3.53 0.41,1.21 0.6,2.37 0.5,3.52 -0.1,1.15 -0.46,2.28 -1.06,3.33 -0.61,1.05 -1.46,2.01 -2.54,2.88 -1.08,0.87 -2.24,1.52 -3.39,1.88 -1.15,0.37 -2.33,0.47 -3.48,0.32 -1.15,-0.15 -2.3,-0.54 -3.39,-1.2 -1.09,-0.66 -2.08,-1.55 -3.02,-2.71 -0.91,-1.13 -1.56,-2.29 -1.97,-3.5 -0.41,-1.21 -0.52,-2.38 -0.42,-3.54 0.1,-1.15 0.48,-2.25 1.08,-3.3 0.61,-1.05 1.47,-2.07 2.55,-2.93 1.08,-0.86 2.23,-1.45 3.38,-1.82 z m 8.17,10.76 c -0.09,-1.28 -0.74,-2.72 -1.99,-4.28 -1.25,-1.56 -2.52,-2.5 -3.75,-2.87 -1.23,-0.37 -2.45,-0.09 -3.67,0.89 -1.22,0.98 -1.79,2.14 -1.72,3.44 0.06,1.3 0.73,2.77 1.99,4.33 1.25,1.56 2.5,2.47 3.76,2.82 1.26,0.34 2.48,0.01 3.7,-0.97 1.21,-0.98 1.78,-2.09 1.68,-3.36 z"
   id="path46"
   inkscape:connector-curvature="0"
   style="fill:#216e61" />
				<path
   class="st0"
   d="m 423.79,374.76 c -1.21,-0.34 -2.23,-1.22 -3.04,-2.61 l -5.26,-8.98 -1.63,0.96 c -0.22,0.13 -0.43,0.13 -0.66,0.09 -0.23,-0.03 -0.44,-0.17 -0.6,-0.45 l -0.92,-1.57 2.37,-1.93 -1.76,-4.88 c -0.1,-0.24 -0.08,-0.42 0.01,-0.64 0.08,-0.22 0.27,-0.41 0.49,-0.54 l 2.01,-1.18 2.98,5.09 4.24,-2.48 1.62,2.76 -4.24,2.48 5.11,8.73 c 0.29,0.5 0.64,0.81 1.06,0.94 0.42,0.14 0.84,0.06 1.24,-0.18 0.25,-0.15 0.44,-0.26 0.56,-0.41 0.12,-0.16 0.21,-0.29 0.3,-0.43 0.09,-0.14 0.18,-0.27 0.23,-0.39 0.06,-0.12 0.12,-0.15 0.21,-0.21 0.13,-0.07 0.25,-0.15 0.35,-0.12 0.1,0.03 0.2,0.05 0.37,0.12 l 2.27,1.2 c -0.29,0.8 -0.75,1.53 -1.32,2.21 -0.58,0.67 -1.26,1.24 -2.04,1.7 -1.4,0.83 -2.73,1.07 -3.95,0.72 z"
   id="path48"
   inkscape:connector-curvature="0"
   style="fill:#216e61" />
				<path
   class="st0"
   d="m 442.09,346.67 c 1.05,-0.03 2.04,0.2 2.99,0.6 0.95,0.4 1.78,1.01 2.55,1.84 0.77,0.83 1.4,1.83 1.91,3.08 0.12,0.3 0.21,0.62 0.26,0.84 0.05,0.22 0.08,0.4 0.06,0.53 -0.01,0.16 -0.09,0.27 -0.19,0.39 -0.11,0.12 -0.24,0.18 -0.45,0.26 l -10.69,4.31 c 0.86,1.73 1.85,2.82 3.03,3.33 1.18,0.5 2.43,0.47 3.81,-0.09 0.68,-0.27 1.22,-0.57 1.63,-0.93 0.44,-0.37 0.77,-0.7 1.06,-1.06 0.29,-0.36 0.57,-0.62 0.77,-0.9 0.2,-0.28 0.41,-0.44 0.68,-0.55 0.17,-0.07 0.35,-0.1 0.51,-0.09 0.16,0.01 0.26,0.05 0.41,0.15 l 1.83,1.03 c -0.26,0.73 -0.57,1.41 -0.99,2.01 -0.42,0.6 -0.91,1.15 -1.43,1.6 -0.56,0.46 -1.15,0.85 -1.75,1.22 -0.6,0.36 -1.23,0.65 -1.84,0.9 -1.22,0.49 -2.36,0.76 -3.57,0.77 -1.21,0.02 -2.33,-0.24 -3.42,-0.7 -1.09,-0.46 -2.09,-1.2 -2.99,-2.17 -0.9,-0.97 -1.65,-2.24 -2.26,-3.76 -0.48,-1.18 -0.71,-2.34 -0.76,-3.54 -0.05,-1.2 0.16,-2.34 0.55,-3.4 0.4,-1.06 1.03,-2.02 1.86,-2.87 0.84,-0.85 1.95,-1.57 3.24,-2.09 1.06,-0.44 2.14,-0.68 3.19,-0.71 z m -4.36,5.83 c -0.4,0.95 -0.45,2.1 -0.15,3.43 l 7.83,-3.16 c -0.22,-0.54 -0.52,-1.01 -0.85,-1.42 -0.33,-0.42 -0.73,-0.73 -1.18,-0.98 -0.45,-0.25 -0.93,-0.37 -1.49,-0.38 -0.55,-0.01 -1.15,0.07 -1.76,0.32 -1.2,0.49 -1.99,1.25 -2.4,2.19 z"
   id="path50"
   inkscape:connector-curvature="0"
   style="fill:#216e61" />
				<path
   class="st0"
   d="m 495.55,351.91 0.24,2.13 -0.51,0.06 -2.24,0.25 -2.13,0.24 c -0.43,0.05 -0.8,0.02 -1.11,-0.13 -0.31,-0.15 -0.55,-0.34 -0.8,-0.64 l -6.44,-7.77 c -0.25,-0.3 -0.49,-0.46 -0.76,-0.57 -0.27,-0.12 -0.64,-0.15 -1.11,-0.1 l -1.84,0.21 0.75,6.65 c 0.44,0.02 0.85,0.05 1.1,0.06 0.26,0.01 0.45,0.06 0.55,0.05 0.11,-0.01 0.18,0.01 0.22,0.01 0.63,0.08 0.96,0.4 1.03,1.02 l 0.24,2.13 -2.75,0.31 -4.85,0.55 -2.75,0.31 -0.24,-2.13 c -0.07,-0.62 0.18,-1.01 0.78,-1.22 0.04,0 0.1,-0.05 0.21,-0.06 0.1,-0.05 0.28,-0.1 0.53,-0.17 0.25,-0.06 0.64,-0.18 1.06,-0.3 l -2.13,-18.98 c -0.44,-0.02 -0.85,-0.05 -1.11,-0.06 -0.26,-0.01 -0.45,-0.06 -0.55,-0.05 -0.11,0.01 -0.18,-0.02 -0.22,-0.01 -0.63,-0.08 -0.96,-0.4 -1.03,-1.02 l -0.24,-2.13 2.75,-0.31 7.7,-0.87 c 1.77,-0.2 3.35,-0.19 4.65,0.03 1.31,0.22 2.42,0.64 3.28,1.21 0.87,0.56 1.61,1.32 2.08,2.18 0.5,0.9 0.79,1.85 0.92,2.97 0.1,0.87 0.05,1.72 -0.12,2.54 -0.16,0.82 -0.48,1.56 -0.88,2.26 -0.4,0.7 -0.95,1.32 -1.62,1.87 -0.67,0.55 -1.46,1.04 -2.33,1.43 0.66,0.29 1.25,0.74 1.76,1.34 l 4.8,5.61 c 0.44,0.02 0.85,0.05 1.14,0.06 0.29,0 0.48,0.06 0.63,0.04 0.15,-0.02 0.26,0.01 0.29,0 0.65,0.06 0.98,0.38 1.05,1 z m -10.38,-11.87 c 0.39,-0.45 0.66,-0.99 0.81,-1.56 0.16,-0.57 0.2,-1.19 0.12,-1.84 -0.15,-1.34 -0.7,-2.3 -1.65,-2.93 -0.95,-0.63 -2.32,-0.8 -4.13,-0.6 l -2.86,0.32 0.97,8.68 2.78,-0.31 c 0.9,-0.1 1.68,-0.34 2.35,-0.63 0.68,-0.29 1.22,-0.68 1.61,-1.13 z"
   id="path52"
   inkscape:connector-curvature="0"
   style="fill:#216e61" />
				<path
   class="st0"
   d="m 523.64,353.75 -0.18,2.14 -2.72,-0.23 -4.49,-0.38 1,-11.82 c 0.1,-1.12 -0.08,-2.05 -0.57,-2.71 -0.46,-0.66 -1.22,-1.05 -2.28,-1.14 -0.76,-0.07 -1.5,0.06 -2.22,0.36 -0.72,0.3 -1.37,0.69 -2.04,1.25 l -0.84,9.86 c 0.43,0.11 0.82,0.22 1.07,0.27 0.25,0.06 0.43,0.15 0.54,0.16 0.11,0.05 0.18,0.05 0.21,0.05 0.6,0.2 0.86,0.58 0.81,1.2 l -0.18,2.14 -2.76,-0.23 -4.46,-0.38 -2.76,-0.23 0.18,-2.14 c 0.05,-0.62 0.37,-0.95 1,-1.05 0.04,0 0.11,-0.03 0.22,-0.02 0.11,0.01 0.3,-0.05 0.55,-0.06 0.26,-0.01 0.66,-0.05 1.1,-0.09 l 1.68,-19.76 c -0.43,-0.11 -0.82,-0.22 -1.07,-0.27 -0.25,-0.06 -0.43,-0.15 -0.54,-0.16 -0.11,-0.01 -0.18,-0.05 -0.21,-0.06 -0.61,-0.2 -0.86,-0.58 -0.81,-1.2 l 0.18,-2.14 2.76,0.23 4.46,0.38 -0.88,10.37 c 0.78,-0.63 1.63,-1.1 2.53,-1.46 0.91,-0.36 1.98,-0.49 3.14,-0.39 1.02,0.09 1.87,0.34 2.64,0.74 0.77,0.39 1.34,0.95 1.83,1.62 0.46,0.66 0.79,1.45 1.01,2.35 0.18,0.89 0.28,1.81 0.19,2.86 l -0.7,8.27 c 0.43,0.11 0.79,0.21 1.04,0.27 0.25,0.06 0.43,0.11 0.53,0.15 0.11,0.04 0.18,0.05 0.21,0.06 0.62,0.19 0.88,0.58 0.83,1.19 z"
   id="path54"
   inkscape:connector-curvature="0"
   style="fill:#216e61" />
				<path
   class="st0"
   d="m 545.81,342.42 c 0.86,0.6 1.52,1.38 2.04,2.27 0.52,0.89 0.82,1.87 0.94,2.99 0.12,1.12 0.03,2.31 -0.31,3.61 -0.08,0.32 -0.2,0.62 -0.29,0.83 -0.09,0.2 -0.17,0.37 -0.27,0.46 -0.11,0.12 -0.23,0.16 -0.39,0.2 -0.16,0.03 -0.3,0 -0.51,-0.06 l -11.15,-2.94 c -0.35,1.9 -0.21,3.37 0.44,4.48 0.65,1.11 1.66,1.83 3.1,2.21 0.7,0.18 1.32,0.27 1.86,0.23 0.57,-0.04 1.04,-0.1 1.49,-0.21 0.44,-0.11 0.83,-0.16 1.16,-0.26 0.33,-0.1 0.59,-0.11 0.88,-0.03 0.17,0.05 0.34,0.13 0.46,0.23 0.12,0.11 0.17,0.2 0.24,0.37 l 0.85,1.92 c -0.64,0.43 -1.3,0.79 -2,1.02 -0.7,0.23 -1.42,0.38 -2.11,0.42 -0.72,0.03 -1.43,0 -2.13,-0.07 -0.7,-0.07 -1.37,-0.21 -2.01,-0.38 -1.27,-0.33 -2.35,-0.81 -3.33,-1.52 -0.98,-0.71 -1.73,-1.58 -2.32,-2.61 -0.6,-1.02 -0.96,-2.21 -1.1,-3.53 -0.14,-1.31 0.02,-2.78 0.44,-4.36 0.32,-1.23 0.83,-2.3 1.51,-3.29 0.67,-0.99 1.52,-1.78 2.47,-2.4 0.95,-0.61 2.03,-1.01 3.21,-1.18 1.18,-0.18 2.51,-0.09 3.84,0.26 1.12,0.29 2.13,0.74 2.99,1.34 z m -6.98,2.08 c -0.89,0.52 -1.62,1.42 -2.17,2.66 l 8.16,2.16 c 0.15,-0.56 0.18,-1.12 0.17,-1.65 -0.01,-0.53 -0.15,-1.02 -0.36,-1.49 -0.21,-0.47 -0.53,-0.85 -0.96,-1.2 -0.44,-0.34 -0.96,-0.63 -1.6,-0.8 -1.26,-0.33 -2.35,-0.2 -3.24,0.32 z"
   id="path56"
   inkscape:connector-curvature="0"
   style="fill:#216e61" />
				<path
   class="st0"
   d="m 561.65,365.5 -0.82,1.99 -2.56,-1.06 -4.14,-1.71 -2.56,-1.06 0.82,-1.98 c 0.24,-0.57 0.65,-0.8 1.27,-0.69 0.03,0.01 0.11,0.01 0.22,0.05 0.11,0.01 0.3,0.05 0.55,0.11 0.25,0.06 0.65,0.15 1.08,0.25 l 4.37,-10.59 c -0.37,-0.23 -0.72,-0.45 -0.94,-0.59 -0.22,-0.13 -0.36,-0.27 -0.46,-0.31 -0.1,-0.04 -0.15,-0.1 -0.19,-0.12 -0.52,-0.37 -0.65,-0.82 -0.41,-1.39 l 0.82,-1.98 2.56,1.05 4.14,1.71 -5.75,13.92 c 0.38,0.23 0.72,0.45 0.94,0.58 0.22,0.13 0.36,0.27 0.46,0.31 0.1,0.04 0.15,0.1 0.19,0.12 0.52,0.37 0.64,0.81 0.41,1.39 z m 5.82,-20.2 c -0.26,0.25 -0.59,0.47 -0.92,0.61 -0.33,0.14 -0.68,0.23 -1.08,0.22 -0.39,0 -0.76,-0.08 -1.13,-0.23 -0.37,-0.15 -0.68,-0.36 -0.96,-0.63 -0.28,-0.27 -0.43,-0.57 -0.57,-0.9 -0.14,-0.33 -0.21,-0.72 -0.22,-1.08 -0.01,-0.36 0.06,-0.72 0.21,-1.09 0.15,-0.37 0.36,-0.68 0.63,-0.96 0.27,-0.28 0.59,-0.47 0.92,-0.6 0.33,-0.14 0.64,-0.21 1.03,-0.21 0.39,0 0.77,0.04 1.14,0.19 0.37,0.15 0.66,0.39 0.95,0.67 0.28,0.27 0.48,0.55 0.62,0.89 0.14,0.33 0.23,0.68 0.22,1.08 0,0.39 -0.04,0.77 -0.2,1.14 -0.14,0.36 -0.38,0.66 -0.64,0.9 z"
   id="path58"
   inkscape:connector-curvature="0"
   style="fill:#216e61" />
				<path
   class="st0"
   d="m 586.36,379.29 -1.11,1.84 -2.37,-1.43 -3.83,-2.31 6.12,-10.16 c 0.58,-0.97 0.8,-1.9 0.68,-2.69 -0.12,-0.79 -0.63,-1.49 -1.54,-2.03 -0.65,-0.39 -1.37,-0.61 -2.15,-0.66 -0.78,-0.04 -1.54,0.01 -2.38,0.22 l -5.1,8.48 c 0.34,0.29 0.61,0.54 0.81,0.7 0.2,0.16 0.34,0.29 0.41,0.38 0.08,0.09 0.14,0.12 0.17,0.14 0.46,0.44 0.52,0.9 0.2,1.44 l -1.11,1.84 -2.34,-1.41 -3.87,-2.33 -2.34,-1.41 1.11,-1.84 c 0.32,-0.53 0.76,-0.69 1.36,-0.5 0.03,0.02 0.11,0.03 0.21,0.08 0.11,0.02 0.29,0.09 0.52,0.19 0.24,0.1 0.59,0.23 1,0.39 l 5.91,-9.82 c -0.34,-0.29 -0.61,-0.54 -0.81,-0.7 -0.2,-0.16 -0.32,-0.32 -0.41,-0.38 -0.08,-0.09 -0.14,-0.12 -0.17,-0.14 -0.45,-0.44 -0.52,-0.91 -0.2,-1.44 l 1.11,-1.84 2.34,1.41 2.37,1.43 c 0.5,0.3 0.66,0.74 0.53,1.3 l -0.47,1.42 c 0.52,-0.16 1,-0.25 1.54,-0.3 0.51,-0.08 1.05,-0.05 1.57,0.01 0.52,0.06 1.04,0.11 1.56,0.3 0.52,0.19 1.06,0.43 1.59,0.75 0.87,0.53 1.58,1.12 2.08,1.84 0.52,0.69 0.78,1.45 0.93,2.26 0.12,0.79 0.07,1.65 -0.14,2.55 -0.2,0.9 -0.6,1.76 -1.14,2.67 l -4.26,7.08 c 0.33,0.29 0.64,0.56 0.84,0.72 0.2,0.16 0.32,0.32 0.41,0.38 0.09,0.06 0.14,0.12 0.17,0.14 0.45,0.44 0.51,0.9 0.2,1.43 z"
   id="path60"
   inkscape:connector-curvature="0"
   style="fill:#216e61" />
			</g>
			<g
   id="g82">
				<path
   class="st0"
   d="m 468.68,663.64 -0.56,2.07 -0.49,-0.13 -2.18,-0.59 -2.07,-0.56 c -0.42,-0.11 -0.75,-0.28 -0.99,-0.53 -0.23,-0.25 -0.39,-0.52 -0.51,-0.89 l -3.14,-9.59 c -0.13,-0.37 -0.29,-0.61 -0.5,-0.81 -0.21,-0.21 -0.54,-0.37 -1,-0.49 l -1.79,-0.48 -1.75,6.47 c 0.4,0.18 0.77,0.36 1.01,0.46 0.24,0.1 0.39,0.22 0.5,0.25 0.11,0.03 0.17,0.08 0.2,0.09 0.56,0.3 0.75,0.73 0.58,1.33 l -0.56,2.07 -2.67,-0.72 -4.71,-1.27 -2.67,-0.72 0.56,-2.07 c 0.16,-0.6 0.54,-0.87 1.17,-0.85 0.04,0.01 0.12,-0.01 0.22,0.02 0.11,-0.01 0.3,0 0.56,0.04 0.25,0.03 0.66,0.07 1.1,0.11 l 4.98,-18.44 c -0.4,-0.18 -0.77,-0.36 -1.01,-0.46 -0.24,-0.1 -0.39,-0.22 -0.5,-0.25 -0.11,-0.03 -0.17,-0.08 -0.2,-0.09 -0.56,-0.3 -0.75,-0.73 -0.58,-1.33 l 0.56,-2.07 2.67,0.72 7.48,2.02 c 1.72,0.47 3.19,1.05 4.32,1.73 1.13,0.68 2.01,1.49 2.61,2.33 0.6,0.84 1.02,1.82 1.13,2.79 0.14,1.02 0.06,2.01 -0.24,3.1 -0.23,0.84 -0.59,1.61 -1.04,2.32 -0.46,0.7 -1.02,1.27 -1.65,1.78 -0.63,0.51 -1.37,0.88 -2.19,1.14 -0.83,0.27 -1.74,0.44 -2.69,0.48 0.5,0.51 0.9,1.15 1.15,1.89 l 2.41,6.98 c 0.4,0.18 0.77,0.36 1.04,0.47 0.27,0.11 0.43,0.23 0.57,0.27 0.14,0.04 0.24,0.1 0.27,0.11 0.57,0.28 0.76,0.7 0.6,1.3 z m -5.31,-14.85 c 0.53,-0.27 0.97,-0.68 1.33,-1.15 0.35,-0.47 0.62,-1.04 0.79,-1.67 0.35,-1.3 0.2,-2.4 -0.46,-3.33 -0.65,-0.93 -1.87,-1.6 -3.62,-2.07 l -2.78,-0.75 -2.28,8.43 2.71,0.73 c 0.88,0.24 1.69,0.31 2.41,0.28 0.73,-0.03 1.38,-0.2 1.9,-0.47 z"
   id="path64"
   inkscape:connector-curvature="0"
   style="fill:#216e61" />
				<path
   class="st0"
   d="m 499.3,666.65 -0.15,2.14 -2.72,-0.2 -2.76,-0.2 c -0.58,-0.04 -0.92,-0.36 -1.06,-0.92 l -0.22,-1.51 c -0.43,0.37 -0.85,0.7 -1.28,1 -0.42,0.3 -0.88,0.52 -1.37,0.7 -0.49,0.18 -1.01,0.33 -1.56,0.43 -0.55,0.07 -1.1,0.1 -1.72,0.06 -1.02,-0.07 -1.91,-0.32 -2.69,-0.71 -0.74,-0.38 -1.35,-0.97 -1.85,-1.63 -0.5,-0.66 -0.81,-1.41 -1.04,-2.3 -0.19,-0.89 -0.27,-1.84 -0.19,-2.9 l 0.6,-8.24 c -1.54,-0.4 -1.54,-0.4 -1.83,-0.46 -0.61,-0.19 -0.87,-0.58 -0.83,-1.19 l 0.16,-2.14 2.76,0.2 4.46,0.32 -0.86,11.83 c -0.08,1.13 0.14,2.05 0.61,2.71 0.46,0.65 1.24,1 2.29,1.08 0.76,0.05 1.5,-0.08 2.21,-0.35 0.71,-0.28 1.37,-0.7 2.03,-1.28 l 0.71,-9.87 c -1.51,-0.36 -1.5,-0.4 -1.79,-0.46 -0.61,-0.19 -0.87,-0.57 -0.83,-1.19 l 0.15,-2.14 2.72,0.2 4.5,0.32 -1.07,15.05 c 1.54,0.4 1.5,0.4 1.79,0.46 0.61,0.19 0.87,0.57 0.83,1.19 z"
   id="path66"
   inkscape:connector-curvature="0"
   style="fill:#216e61" />
				<path
   class="st0"
   d="m 530.83,663.84 0.26,2.13 -2.71,0.32 -4.48,0.54 -1.41,-11.77 c -0.13,-1.12 -0.5,-1.99 -1.11,-2.54 -0.58,-0.55 -1.41,-0.78 -2.46,-0.66 -0.76,0.09 -1.46,0.36 -2.1,0.8 -0.64,0.44 -1.2,0.95 -1.75,1.64 l 1.18,9.82 c 0.44,0.02 0.85,0.05 1.11,0.05 0.26,0.01 0.44,0.06 0.55,0.04 0.11,0.02 0.18,0.01 0.22,0.01 0.63,0.07 0.96,0.4 1.04,1.01 l 0.26,2.13 -2.74,0.33 -4.44,0.53 -2.75,0.33 -0.25,-2.13 c -0.07,-0.61 0.17,-1.01 0.77,-1.23 0.04,0 0.1,-0.05 0.21,-0.06 0.11,-0.01 0.28,-0.11 0.53,-0.17 0.25,-0.07 0.64,-0.19 1.06,-0.31 l -2.36,-19.69 c -0.44,-0.02 -0.85,-0.04 -1.11,-0.05 -0.26,-0.01 -0.45,-0.06 -0.55,-0.04 -0.11,0.01 -0.18,-0.02 -0.22,-0.01 -0.63,-0.07 -0.97,-0.4 -1.04,-1.01 l -0.26,-2.13 2.75,-0.33 4.44,-0.53 1.24,10.33 c 0.64,-0.77 1.37,-1.41 2.18,-1.95 0.82,-0.54 1.84,-0.88 2.99,-1.02 1.01,-0.12 1.9,-0.04 2.73,0.19 0.83,0.23 1.51,0.66 2.12,1.21 0.58,0.55 1.07,1.27 1.46,2.1 0.36,0.84 0.65,1.72 0.77,2.77 l 0.99,8.23 c 0.44,0.02 0.81,0.05 1.07,0.05 0.26,0.01 0.44,0.02 0.56,0.04 0.11,0.02 0.18,0.01 0.22,0.01 0.62,0.07 0.96,0.4 1.03,1.02 z"
   id="path68"
   inkscape:connector-curvature="0"
   style="fill:#216e61" />
				<path
   class="st0"
   d="m 549.58,641.88 0.4,3.41 c 0.03,0.22 0,0.38 -0.09,0.48 -0.08,0.1 -0.24,0.22 -0.45,0.28 -0.17,0.05 -0.39,0.08 -0.73,0.1 -0.33,0.02 -0.77,0.08 -1.26,0.22 -0.91,0.27 -1.6,0.74 -2.09,1.41 -0.48,0.67 -0.78,1.6 -0.95,2.67 l 2.27,7.68 c 1.58,-0.16 1.55,-0.15 1.84,-0.2 0.64,-0.03 1.02,0.23 1.19,0.82 l 0.61,2.06 -2.62,0.77 -4.33,1.28 -2.62,0.77 -0.61,-2.06 c -0.17,-0.59 0,-1.03 0.55,-1.34 0.27,-0.12 0.23,-0.11 1.65,-0.83 l -3.25,-10.99 c -1.58,0.16 -1.55,0.15 -1.84,0.2 -0.63,0.04 -1.02,-0.23 -1.19,-0.82 l -0.61,-2.06 2.62,-0.77 2.55,-0.75 c 0.45,-0.13 0.75,-0.15 0.98,-0.02 0.22,0.12 0.41,0.37 0.6,0.73 l 0.92,2.08 c 0.3,-1.3 0.77,-2.39 1.46,-3.28 0.69,-0.89 1.53,-1.48 2.62,-1.8 0.88,-0.24 1.67,-0.29 2.38,-0.04 z"
   id="path70"
   inkscape:connector-curvature="0"
   style="fill:#216e61" />
				<path
   class="st0"
   d="m 588.55,633.83 c 0.61,1.04 0.95,2.06 1.14,3.17 0.19,1.11 0.15,2.19 -0.16,3.26 -0.27,1.05 -0.81,2.08 -1.56,3.02 -0.75,0.95 -1.74,1.78 -3,2.52 l -0.47,0.28 c -2.01,1.18 -4.41,2.04 -7.2,2.62 l -0.33,-0.57 -3.09,-5.27 0.13,-0.07 0.38,-0.22 1.29,-0.75 c 0.41,-0.24 0.74,-0.18 1.05,0.14 0.23,0.24 0.84,1.07 1.81,2.44 1.08,-0.25 2.59,-0.97 4.54,-2.11 1.19,-0.7 1.97,-1.53 2.29,-2.49 0.33,-0.95 0.17,-1.95 -0.46,-3.02 -0.35,-0.6 -0.8,-1.01 -1.3,-1.22 -0.5,-0.21 -1.1,-0.29 -1.75,-0.24 -0.65,0.04 -1.31,0.14 -2.05,0.32 -0.74,0.18 -1.49,0.41 -2.25,0.56 -0.79,0.17 -1.56,0.28 -2.36,0.37 -0.79,0.08 -1.6,0.01 -2.37,-0.17 -0.78,-0.18 -1.49,-0.52 -2.19,-1.08 -0.69,-0.52 -1.39,-1.29 -2,-2.33 -0.48,-0.82 -0.8,-1.72 -0.91,-2.71 -0.15,-0.97 -0.07,-1.98 0.21,-2.95 0.28,-0.97 0.79,-1.9 1.48,-2.8 0.69,-0.91 1.65,-1.73 2.84,-2.42 2.23,-1.31 4.65,-2.14 7.25,-2.52 l 3.41,5.81 -0.13,0.07 -0.38,0.22 -1.29,0.75 c -0.41,0.24 -0.76,0.15 -1.07,-0.17 -0.23,-0.25 -0.82,-1.04 -1.77,-2.38 -0.99,0.11 -2.34,0.69 -3.97,1.65 -0.59,0.35 -1.03,0.69 -1.4,1.07 -0.35,0.41 -0.61,0.82 -0.75,1.24 -0.14,0.42 -0.2,0.88 -0.16,1.32 0.04,0.44 0.22,0.88 0.46,1.29 0.31,0.53 0.76,0.86 1.24,1.04 0.48,0.18 1.05,0.27 1.69,0.23 0.65,-0.04 1.36,-0.12 2.1,-0.3 0.74,-0.18 1.5,-0.33 2.28,-0.5 0.79,-0.17 1.58,-0.25 2.38,-0.34 0.79,-0.09 1.58,-0.04 2.36,0.14 0.78,0.18 1.5,0.47 2.17,0.97 0.71,0.45 1.32,1.19 1.87,2.13 z"
   id="path72"
   inkscape:connector-curvature="0"
   style="fill:#216e61" />
				<path
   class="st0"
   d="m 602.66,632.22 c -1.25,-0.17 -2.39,-0.89 -3.39,-2.14 l -6.5,-8.13 -1.48,1.18 c -0.2,0.16 -0.41,0.19 -0.64,0.19 -0.23,0 -0.45,-0.1 -0.66,-0.36 l -1.14,-1.42 2.06,-2.25 -2.44,-4.57 c -0.13,-0.22 -0.14,-0.4 -0.08,-0.63 0.05,-0.23 0.2,-0.44 0.4,-0.6 l 1.82,-1.45 3.68,4.6 3.84,-3.07 2,2.5 -3.84,3.07 6.31,7.9 c 0.36,0.46 0.75,0.7 1.18,0.78 0.43,0.07 0.84,-0.06 1.2,-0.36 0.23,-0.18 0.4,-0.32 0.49,-0.49 0.1,-0.17 0.17,-0.32 0.23,-0.47 0.07,-0.15 0.14,-0.3 0.18,-0.42 0.04,-0.13 0.1,-0.17 0.18,-0.24 0.11,-0.09 0.23,-0.18 0.33,-0.17 0.1,0.01 0.2,0.02 0.38,0.07 l 2.42,0.86 c -0.17,0.84 -0.52,1.63 -0.99,2.38 -0.47,0.75 -1.06,1.41 -1.77,1.98 -1.23,1 -2.52,1.42 -3.77,1.26 z"
   id="path74"
   inkscape:connector-curvature="0"
   style="fill:#216e61" />
				<path
   class="st0"
   d="m 627.43,607.09 1.57,1.46 -1.56,1.68 -0.32,0.35 -1.04,1.12 c -0.3,0.32 -0.55,0.54 -0.83,0.62 -0.25,0.11 -0.59,0.05 -0.96,-0.15 l -1.23,-0.6 c 0,0.64 -0.03,1.21 -0.12,1.78 -0.06,0.54 -0.22,1.09 -0.38,1.58 -0.16,0.49 -0.4,0.97 -0.69,1.44 -0.29,0.47 -0.66,0.98 -1.11,1.46 -0.55,0.59 -1.12,1.05 -1.73,1.38 -0.61,0.33 -1.22,0.56 -1.86,0.61 -0.64,0.05 -1.31,-0.03 -1.94,-0.26 -0.63,-0.24 -1.26,-0.62 -1.87,-1.19 -0.51,-0.47 -0.91,-1.1 -1.17,-1.84 -0.26,-0.74 -0.29,-1.61 -0.09,-2.62 0.19,-1.01 0.62,-2.16 1.32,-3.45 0.7,-1.29 1.81,-2.74 3.24,-4.29 l -0.8,-0.74 c -0.93,-0.87 -1.8,-1.27 -2.6,-1.32 -0.8,-0.05 -1.53,0.31 -2.23,1.06 -0.5,0.53 -0.86,1.04 -1.05,1.51 -0.19,0.47 -0.35,0.91 -0.44,1.33 -0.09,0.41 -0.2,0.75 -0.27,1.09 -0.06,0.34 -0.23,0.62 -0.48,0.89 -0.2,0.21 -0.45,0.38 -0.71,0.44 -0.25,0.06 -0.51,0.02 -0.77,-0.02 l -1.61,-0.35 c 0.02,-2.91 1.04,-5.49 3.09,-7.71 0.74,-0.8 1.55,-1.39 2.41,-1.79 0.84,-0.36 1.7,-0.55 2.55,-0.56 0.88,0.02 1.78,0.17 2.62,0.55 0.84,0.38 1.66,0.94 2.43,1.66 l 6.05,5.62 c 0.33,-0.24 0.63,-0.46 0.8,-0.6 0.18,-0.14 0.3,-0.22 0.33,-0.24 0.53,-0.36 1,-0.32 1.45,0.1 z m -8.77,0.93 c -0.89,0.96 -1.58,1.81 -2.04,2.57 -0.46,0.76 -0.8,1.44 -0.98,2.02 -0.19,0.57 -0.22,1.04 -0.13,1.42 0.09,0.38 0.31,0.74 0.6,1.01 0.59,0.54 1.16,0.78 1.72,0.66 0.56,-0.12 1.09,-0.43 1.61,-0.99 0.32,-0.35 0.57,-0.66 0.79,-1.01 0.22,-0.34 0.39,-0.73 0.47,-1.1 0.09,-0.36 0.18,-0.73 0.22,-1.14 0.04,-0.41 0.05,-0.85 0.03,-1.31 z"
   id="path76"
   inkscape:connector-curvature="0"
   style="fill:#216e61" />
				<path
   class="st0"
   d="m 625.16,581.91 c 0.5,-0.5 1.08,-0.9 1.67,-1.21 l 2.96,-4.46 1.4,0.92 c 0.24,0.16 0.38,0.34 0.42,0.55 0.04,0.2 0.01,0.44 -0.13,0.79 l -0.68,1.56 c 0.33,0.09 0.65,0.21 0.99,0.35 0.34,0.14 0.64,0.29 0.97,0.51 0.76,0.5 1.39,1.14 1.79,1.84 0.41,0.7 0.67,1.49 0.73,2.32 0.06,0.83 -0.05,1.72 -0.29,2.6 -0.24,0.89 -0.64,1.76 -1.22,2.64 -0.38,0.58 -0.81,1.16 -1.3,1.63 -0.02,0.69 0.12,1.13 0.49,1.37 0.3,0.2 0.63,0.24 0.98,0.04 0.35,-0.2 0.69,-0.51 1.07,-0.95 0.38,-0.44 0.79,-0.92 1.19,-1.53 0.43,-0.59 0.82,-1.16 1.3,-1.76 0.48,-0.6 0.98,-1.14 1.5,-1.67 0.53,-0.53 1.06,-0.87 1.65,-1.17 0.59,-0.3 1.17,-0.45 1.86,-0.43 0.69,0.02 1.37,0.3 2.1,0.78 0.7,0.46 1.24,1.09 1.66,1.84 0.42,0.76 0.67,1.62 0.76,2.6 0.09,0.98 -0.03,2.03 -0.36,3.17 -0.32,1.14 -0.87,2.3 -1.66,3.49 -0.78,1.18 -1.56,2.16 -2.38,2.87 -0.83,0.72 -1.59,1.21 -2.34,1.55 -0.75,0.33 -1.48,0.46 -2.15,0.41 -0.67,-0.05 -1.28,-0.24 -1.83,-0.6 -0.73,-0.48 -1.23,-1.12 -1.41,-1.89 -0.18,-0.78 -0.15,-1.62 0.07,-2.61 -0.47,0.25 -0.93,0.35 -1.45,0.35 -0.53,0 -1.06,-0.18 -1.64,-0.56 -0.24,-0.16 -0.46,-0.35 -0.65,-0.6 -0.18,-0.25 -0.36,-0.5 -0.49,-0.85 -0.12,-0.34 -0.22,-0.72 -0.28,-1.1 -0.05,-0.38 -0.01,-0.84 0.03,-1.29 -0.95,0.51 -1.95,0.76 -2.95,0.76 -1,-0.01 -1.99,-0.36 -2.93,-0.98 -0.76,-0.5 -1.39,-1.14 -1.79,-1.84 -0.4,-0.71 -0.65,-1.52 -0.71,-2.35 -0.06,-0.83 0.03,-1.69 0.28,-2.6 0.26,-0.92 0.7,-1.85 1.29,-2.73 0.47,-0.69 0.98,-1.26 1.48,-1.76 z m 6.84,5.49 c 0.1,-0.41 0.12,-0.84 0.05,-1.19 -0.05,-0.38 -0.25,-0.74 -0.48,-1.06 -0.22,-0.32 -0.55,-0.62 -0.91,-0.87 -0.76,-0.5 -1.53,-0.66 -2.28,-0.51 -0.76,0.15 -1.43,0.71 -2.03,1.62 -0.6,0.91 -0.87,1.78 -0.72,2.53 0.15,0.76 0.62,1.37 1.38,1.87 0.36,0.24 0.75,0.45 1.13,0.53 0.38,0.08 0.73,0.09 1.13,0.01 0.4,-0.08 0.77,-0.23 1.13,-0.52 0.36,-0.28 0.68,-0.64 0.99,-1.09 0.31,-0.45 0.51,-0.9 0.61,-1.32 z m 10.04,2.9 c -0.3,0.06 -0.62,0.2 -0.94,0.43 -0.32,0.22 -0.64,0.58 -0.99,0.96 -0.34,0.39 -0.65,0.79 -1.01,1.25 -0.35,0.46 -0.67,0.95 -1.03,1.42 -0.36,0.47 -0.7,0.93 -1.07,1.35 -0.04,0.59 -0.01,1.13 0.13,1.58 0.14,0.44 0.41,0.84 0.83,1.12 0.27,0.18 0.58,0.25 0.9,0.29 0.32,0.04 0.68,-0.03 1.06,-0.21 0.38,-0.18 0.77,-0.5 1.18,-0.92 0.41,-0.42 0.84,-0.93 1.3,-1.63 0.46,-0.7 0.8,-1.34 1.02,-1.94 0.22,-0.6 0.36,-1.07 0.4,-1.53 0.04,-0.45 -0.04,-0.86 -0.18,-1.17 -0.14,-0.31 -0.41,-0.57 -0.71,-0.78 -0.28,-0.21 -0.58,-0.28 -0.89,-0.22 z"
   id="path78"
   inkscape:connector-curvature="0"
   style="fill:#216e61" />
				<path
   class="st0"
   d="m 637.67,559.13 c 0.74,-0.74 1.61,-1.26 2.58,-1.63 0.96,-0.36 1.98,-0.5 3.11,-0.43 1.13,0.07 2.28,0.35 3.5,0.91 0.3,0.13 0.58,0.3 0.76,0.43 0.18,0.12 0.33,0.23 0.4,0.34 0.1,0.13 0.12,0.26 0.13,0.42 0.01,0.16 -0.06,0.29 -0.14,0.49 l -4.76,10.5 c 1.82,0.66 3.29,0.77 4.49,0.32 1.2,-0.45 2.08,-1.33 2.7,-2.69 0.3,-0.66 0.49,-1.26 0.53,-1.79 0.06,-0.57 0.07,-1.05 0.04,-1.5 -0.03,-0.45 -0.02,-0.85 -0.06,-1.19 -0.05,-0.34 -0.01,-0.6 0.11,-0.87 0.07,-0.16 0.18,-0.32 0.31,-0.42 0.13,-0.1 0.22,-0.14 0.4,-0.18 l 2.03,-0.52 c 0.32,0.7 0.56,1.41 0.67,2.14 0.11,0.73 0.14,1.46 0.07,2.15 -0.09,0.72 -0.24,1.41 -0.43,2.08 -0.19,0.68 -0.44,1.32 -0.71,1.92 -0.54,1.19 -1.19,2.18 -2.05,3.02 -0.86,0.85 -1.85,1.44 -2.96,1.86 -1.11,0.42 -2.34,0.58 -3.66,0.5 -1.32,-0.08 -2.74,-0.48 -4.23,-1.16 -1.16,-0.53 -2.13,-1.21 -2.99,-2.04 -0.86,-0.83 -1.5,-1.8 -1.95,-2.84 -0.45,-1.04 -0.65,-2.17 -0.63,-3.36 0.02,-1.19 0.33,-2.49 0.9,-3.75 0.49,-1.04 1.1,-1.96 1.84,-2.71 z m 0.88,7.23 c 0.36,0.96 1.13,1.83 2.26,2.58 l 3.48,-7.69 c -0.53,-0.24 -1.07,-0.37 -1.6,-0.44 -0.52,-0.08 -1.03,-0.03 -1.53,0.11 -0.5,0.13 -0.93,0.38 -1.34,0.75 -0.41,0.37 -0.78,0.84 -1.05,1.44 -0.53,1.19 -0.59,2.29 -0.22,3.25 z"
   id="path80"
   inkscape:connector-curvature="0"
   style="fill:#216e61" />
			</g>
		</g>
		<g
   id="g88">
			<path
   class="st0"
   d="m 321.2,500 c 0,-0.59 0,-1.16 0.01,-1.75 l -4.64,-3.57 c -0.05,1.76 -0.07,3.53 -0.07,5.32 0,17.95 2.59,35.3 7.42,51.71 l 4.04,-2.92 C 323.55,533.27 321.2,516.9 321.2,500 Z m 351.97,-60.77 c -1.13,1.47 -2.29,2.91 -3.5,4.33 5.93,17.75 9.13,36.73 9.13,56.44 0,98.6 -80.21,178.8 -178.8,178.8 -71.92,0 -134.06,-42.68 -162.41,-104.05 l -5,0.36 c 28.76,63.84 92.98,108.39 167.41,108.39 101.18,0 183.5,-82.32 183.5,-183.5 0,-21.28 -3.64,-41.74 -10.33,-60.77 z M 500,321.2 c 48.22,0 92.04,19.18 124.22,50.32 1.91,-0.36 3.81,-0.69 5.72,-0.96 C 596.7,337.18 550.72,316.5 500,316.5 c -93.11,0 -170.24,69.7 -181.95,159.66 l 4.67,0.47 C 334.2,389.04 409.32,321.2 500,321.2 Z"
   id="path86"
   inkscape:connector-curvature="0"
   style="fill:#216e61" />
		</g>
		<g
   id="g92">
			<path
   class="st0"
   d="m 632.31,475.59 c -0.22,0.14 -0.46,0.29 -0.69,0.45 -1.19,0.76 -2.38,1.53 -3.6,2.28 1.2,7.05 1.82,14.3 1.82,21.69 0,71.59 -58.24,129.83 -129.83,129.83 -31.49,0 -60.4,-11.28 -82.91,-29.99 l -3.3,3.35 c 23.36,19.57 53.43,31.34 86.2,31.34 74.18,0 134.53,-60.34 134.53,-134.53 0,-8.34 -0.76,-16.51 -2.22,-24.42 z m -74.04,-91.6 c 2.04,0.23 4.08,0.46 6.09,0.67 l 3.9,0.42 c 2.37,0.26 4.4,1.69 5.47,3.72 0.39,-0.18 0.77,-0.34 1.16,-0.5 -21.41,-14.41 -47.19,-22.83 -74.89,-22.83 -46,0 -86.69,23.21 -110.95,58.53 -3.49,5.06 -6.62,10.38 -9.38,15.9 -6.4,12.71 -10.81,26.57 -12.86,41.18 l 4.67,0.47 c 1.56,-10.98 4.51,-21.5 8.65,-31.42 3.4,-8.16 7.62,-15.89 12.55,-23.11 23.38,-34.29 62.76,-56.85 107.32,-56.85 20.94,0 40.74,4.98 58.27,13.82 z"
   id="path90"
   inkscape:connector-curvature="0"
   style="fill:#216e61" />
		</g>
	</g>
</g>
</svg>